<svg id="visual" viewBox="0 0 900 200" width="900" height="200" xmlns="http://www.w3.org/2000/svg" xmlns:xlink="http://www.w3.org/1999/xlink" version="1.1"><rect x="0" y="0" width="900" height="200" fill="#202731"></rect><path d="M0 94L21.5 85.5C43 77 86 60 128.8 54.5C171.7 49 214.3 55 257.2 59C300 63 343 65 385.8 67.7C428.7 70.3 471.3 73.7 514.2 79C557 84.3 600 91.7 642.8 86.5C685.7 81.3 728.3 63.7 771.2 53.3C814 43 857 40 878.5 38.5L900 37L900 201L878.5 201C857 201 814 201 771.2 201C728.3 201 685.7 201 642.8 201C600 201 557 201 514.2 201C471.3 201 428.7 201 385.8 201C343 201 300 201 257.2 201C214.3 201 171.7 201 128.8 201C86 201 43 201 21.5 201L0 201Z" fill="#ffaf87"></path><path d="M0 117L21.5 110.8C43 104.7 86 92.3 128.8 86.2C171.7 80 214.3 80 257.2 82C300 84 343 88 385.8 91.2C428.7 94.3 471.3 96.7 514.2 100.3C557 104 600 109 642.8 110.7C685.7 112.3 728.3 110.7 771.2 104C814 97.3 857 85.7 878.5 79.8L900 74L900 201L878.5 201C857 201 814 201 771.2 201C728.3 201 685.7 201 642.8 201C600 201 557 201 514.2 201C471.3 201 428.7 201 385.8 201C343 201 300 201 257.2 201C214.3 201 171.7 201 128.8 201C86 201 43 201 21.5 201L0 201Z" fill="#fb9f7a"></path><path d="M0 121L21.5 124C43 127 86 133 128.8 130.5C171.7 128 214.3 117 257.2 109C300 101 343 96 385.8 98.8C428.7 101.7 471.3 112.3 514.2 113.8C557 115.3 600 107.7 642.8 106.5C685.7 105.3 728.3 110.7 771.2 115C814 119.3 857 122.7 878.5 124.3L900 126L900 201L878.5 201C857 201 814 201 771.2 201C728.3 201 685.7 201 642.8 201C600 201 557 201 514.2 201C471.3 201 428.7 201 385.8 201C343 201 300 201 257.2 201C214.3 201 171.7 201 128.8 201C86 201 43 201 21.5 201L0 201Z" fill="#f78e6f"></path><path d="M0 160L21.5 156.2C43 152.3 86 144.7 128.8 144C171.7 143.3 214.3 149.7 257.2 151.5C300 153.3 343 150.7 385.8 146C428.7 141.3 471.3 134.7 514.2 135.2C557 135.7 600 143.3 642.8 142.8C685.7 142.3 728.3 133.7 771.2 132.8C814 132 857 139 878.5 142.5L900 146L900 201L878.5 201C857 201 814 201 771.2 201C728.3 201 685.7 201 642.8 201C600 201 557 201 514.2 201C471.3 201 428.7 201 385.8 201C343 201 300 201 257.2 201C214.3 201 171.7 201 128.8 201C86 201 43 201 21.5 201L0 201Z" fill="#f27c66"></path><path d="M0 150L21.5 154.2C43 158.3 86 166.7 128.8 168.7C171.7 170.7 214.3 166.3 257.2 162.5C300 158.7 343 155.3 385.8 155.8C428.7 156.3 471.3 160.7 514.2 164.7C557 168.7 600 172.3 642.8 170.2C685.7 168 728.3 160 771.2 160.8C814 161.7 857 171.3 878.5 176.2L900 181L900 201L878.5 201C857 201 814 201 771.2 201C728.3 201 685.7 201 642.8 201C600 201 557 201 514.2 201C471.3 201 428.7 201 385.8 201C343 201 300 201 257.2 201C214.3 201 171.7 201 128.8 201C86 201 43 201 21.5 201L0 201Z" fill="#ed6a5e"></path></svg>