<svg id="visual" viewBox="0 0 700 160" width="700" height="160" xmlns="http://www.w3.org/2000/svg" xmlns:xlink="http://www.w3.org/1999/xlink" version="1.1"><rect x="0" y="0" width="700" height="160" fill="#FFAF87"></rect><path d="M0 70L16.7 69.5C33.3 69 66.7 68 100 69.5C133.3 71 166.7 75 200 83.5C233.3 92 266.7 105 300 104C333.3 103 366.7 88 400 79.7C433.3 71.3 466.7 69.7 500 73.5C533.3 77.3 566.7 86.7 600 91.7C633.3 96.7 666.7 97.3 683.3 97.7L700 98L700 161L683.3 161C666.7 161 633.3 161 600 161C566.7 161 533.3 161 500 161C466.7 161 433.3 161 400 161C366.7 161 333.3 161 300 161C266.7 161 233.3 161 200 161C166.7 161 133.3 161 100 161C66.7 161 33.3 161 16.7 161L0 161Z" fill="#202731" stroke-linecap="round" stroke-linejoin="miter"></path></svg>